<svg data-v-fde0c5aa="" xmlns="http://www.w3.org/2000/svg" viewBox="0 0 300 300" class="font"><!----><defs data-v-fde0c5aa=""><!----></defs><rect data-v-fde0c5aa="" fill="#E8DCEF" x="0" y="0" width="300px" height="300px" class="logo-background-square"></rect><defs data-v-fde0c5aa=""><linearGradient data-v-fde0c5aa="" gradientTransform="rotate(25)" id="486d1b61-02d8-45fa-92a8-55f0a60466d9" x1="0%" y1="0%" x2="100%" y2="0%"><stop data-v-fde0c5aa="" offset="0%" stop-color="#49247E" stop-opacity="1"></stop><stop data-v-fde0c5aa="" offset="100%" stop-color="#AA49C7" stop-opacity="1"></stop></linearGradient></defs><g data-v-fde0c5aa="" id="c0f71320-dfeb-490d-b473-01b4de38132b" fill="url(#486d1b61-02d8-45fa-92a8-55f0a60466d9)" transform="matrix(4.879130840301514,0,0,4.879130840301514,37.950765207308784,104.69539549375034)"><path d="M0.42 14.43L0.42 14.43L0.42 14.01L0.42 14.01Q0.42 13.80 0.63 13.80L0.63 13.80L0.63 13.80Q1.12 13.80 1.38 13.43L1.38 13.43L1.38 13.43Q1.65 13.06 1.65 12.47L1.65 12.47L1.65 5.33L1.65 5.33Q1.25 4.98 0.77 4.98L0.77 4.98L0.77 4.98Q0.56 4.98 0.56 4.77L0.56 4.77L0.56 4.35L0.56 4.35Q0.56 4.14 0.77 4.14L0.77 4.14L3.19 4.14L3.19 4.14Q3.34 4.14 3.45 4.27L3.45 4.27L9.70 11.40L9.70 6.31L9.70 6.31Q9.70 5.71 9.43 5.35L9.43 5.35L9.43 5.35Q9.17 4.98 8.67 4.98L8.67 4.98L8.67 4.98Q8.46 4.98 8.46 4.77L8.46 4.77L8.46 4.35L8.46 4.35Q8.46 4.14 8.67 4.14L8.67 4.14L12.12 4.14L12.12 4.14Q12.33 4.14 12.33 4.35L12.33 4.35L12.33 4.77L12.33 4.77Q12.33 4.98 12.12 4.98L12.12 4.98L12.12 4.98Q11.62 4.98 11.35 5.35L11.35 5.35L11.35 5.35Q11.10 5.70 11.10 6.25L11.10 6.25L11.10 6.25Q11.10 6.28 11.10 6.31L11.10 6.31L11.10 14.43L11.10 14.43Q11.10 14.64 10.90 14.64L10.90 14.64L9.93 14.64L9.93 14.64Q9.79 14.64 9.67 14.52L9.67 14.52L3.06 6.90L3.06 12.47L3.06 12.47Q3.06 13.06 3.32 13.43L3.32 13.43L3.32 13.43Q3.59 13.80 4.08 13.80L4.08 13.80L4.08 13.80Q4.29 13.80 4.29 14.01L4.29 14.01L4.29 14.43L4.29 14.43Q4.29 14.64 4.08 14.64L4.08 14.64L0.63 14.64L0.63 14.64Q0.42 14.64 0.42 14.43ZM12.33 11.08L12.33 11.08L12.33 11.08Q12.33 10.33 12.52 9.71L12.52 9.71L12.52 9.71Q12.71 9.10 13.03 8.69L13.03 8.69L13.03 8.69Q13.34 8.29 13.78 8.01L13.78 8.01L13.78 8.01Q14.21 7.73 14.68 7.61L14.68 7.61L14.68 7.61Q15.15 7.49 15.66 7.49L15.66 7.49L15.66 7.49Q16.19 7.49 16.67 7.67L16.67 7.67L16.67 7.67Q17.14 7.85 17.48 8.13L17.48 8.13L17.48 8.13Q17.81 8.42 18.06 8.78L18.06 8.78L18.06 8.78Q18.30 9.14 18.42 9.50L18.42 9.50L18.42 9.50Q18.54 9.86 18.54 10.19L18.54 10.19L18.54 10.19Q18.54 10.31 18.42 10.36L18.42 10.36L14.36 12.14L14.36 12.14Q14.63 12.79 15.17 13.22L15.17 13.22L15.17 13.22Q15.70 13.64 16.46 13.64L16.46 13.64L16.46 13.64Q16.93 13.64 17.41 13.38L17.41 13.38L17.41 13.38Q17.89 13.13 18.25 12.61L18.25 12.61L18.25 12.61Q18.29 12.55 18.36 12.55L18.36 12.55L18.36 12.55Q18.46 12.55 18.92 12.82L18.92 12.82L18.92 12.82Q18.98 12.86 18.98 12.93L18.98 12.93L18.98 12.93Q18.98 13.02 18.89 13.18L18.89 13.18L18.89 13.18Q18.01 14.81 16.08 14.81L16.08 14.81L16.08 14.81Q14.96 14.81 14.09 14.30L14.09 14.30L14.09 14.30Q13.22 13.79 12.77 12.94L12.77 12.94L12.77 12.94Q12.33 12.10 12.33 11.08ZM14.41 9.05L14.41 9.05L14.41 9.05Q14.06 9.50 14.06 10.20L14.06 10.20L14.06 10.20Q14.06 10.90 14.19 11.27L14.19 11.27L16.44 10.13L16.44 10.13Q16.44 9.47 16.12 9.03L16.12 9.03L16.12 9.03Q15.80 8.59 15.32 8.59L15.32 8.59L15.32 8.59Q14.75 8.59 14.41 9.05ZM19.26 14.43L19.26 14.43L19.26 14.01L19.26 14.01Q19.26 13.80 19.46 13.80L19.46 13.80L19.50 13.80L19.50 13.80Q19.99 13.80 20.25 13.43L20.25 13.43L20.25 13.43Q20.51 13.06 20.51 12.47L20.51 12.47L20.51 10.71L20.51 10.71Q20.51 10.37 20.49 10.14L20.49 10.14L20.49 10.14Q20.47 9.92 20.39 9.67L20.39 9.67L20.39 9.67Q20.32 9.41 20.14 9.27L20.14 9.27L20.14 9.27Q19.96 9.13 19.69 9.10L19.69 9.10L19.69 9.10Q19.51 9.08 19.52 8.92L19.52 8.92L19.52 8.44L19.52 8.44Q19.52 8.29 19.72 8.26L19.72 8.26L19.72 8.26Q20.62 8.11 21.38 7.81L21.38 7.81L21.38 7.81Q22.13 7.50 22.50 7.24L22.50 7.24L22.50 7.24Q22.54 7.21 22.56 7.21L22.56 7.21L22.59 7.21L22.59 7.21Q22.61 7.21 22.61 7.23L22.61 7.23L22.36 9.06L22.36 9.06Q23.37 7.46 24.78 7.46L24.78 7.46L24.78 7.46Q25.36 7.46 25.80 7.62L25.80 7.62L25.80 7.62Q26.23 7.77 26.49 8.02L26.49 8.02L26.49 8.02Q26.74 8.27 26.90 8.64L26.90 8.64L26.90 8.64Q27.05 9.00 27.10 9.37L27.10 9.37L27.10 9.37Q27.16 9.73 27.16 10.17L27.16 10.17L27.16 12.47L27.16 12.47Q27.16 13.06 27.43 13.43L27.43 13.43L27.43 13.43Q27.69 13.80 28.19 13.80L28.19 13.80L28.25 13.80L28.25 13.80Q28.46 13.80 28.46 14.01L28.46 14.01L28.46 14.43L28.46 14.43Q28.46 14.64 28.25 14.64L28.25 14.64L24.45 14.64L24.45 14.64Q24.24 14.64 24.24 14.43L24.24 14.43L24.24 14.01L24.24 14.01Q24.24 13.80 24.46 13.80L24.46 13.80L24.46 13.80Q24.84 13.81 25.03 13.44L25.03 13.44L25.03 13.44Q25.20 13.10 25.20 12.55L25.20 12.55L25.20 12.55Q25.20 12.51 25.20 12.47L25.20 12.47L25.20 10.36L25.20 10.36Q25.20 10.32 25.20 10.25L25.20 10.25L25.20 10.25Q25.20 10.04 25.20 9.92L25.20 9.92L25.20 9.92Q25.20 9.81 25.18 9.62L25.18 9.62L25.18 9.62Q25.16 9.43 25.12 9.32L25.12 9.32L25.12 9.32Q25.09 9.21 25.01 9.08L25.01 9.08L25.01 9.08Q24.94 8.94 24.83 8.87L24.83 8.87L24.83 8.87Q24.73 8.80 24.56 8.75L24.56 8.75L24.56 8.75Q24.40 8.70 24.19 8.70L24.19 8.70L24.19 8.70Q23.68 8.70 23.17 9.06L23.17 9.06L23.17 9.06Q22.67 9.43 22.48 9.89L22.48 9.89L22.48 12.47L22.48 12.47Q22.48 13.06 22.75 13.43L22.75 13.43L22.75 13.43Q23.02 13.80 23.51 13.80L23.51 13.80L23.54 13.80L23.54 13.80Q23.75 13.80 23.75 14.01L23.75 14.01L23.75 14.43L23.75 14.43Q23.75 14.64 23.54 14.64L23.54 14.64L19.46 14.64L19.46 14.64Q19.26 14.64 19.26 14.43ZM28.47 11.08L28.47 11.08L28.47 11.08Q28.47 10.33 28.66 9.71L28.66 9.71L28.66 9.71Q28.85 9.10 29.17 8.69L29.17 8.69L29.17 8.69Q29.49 8.29 29.92 8.01L29.92 8.01L29.92 8.01Q30.36 7.73 30.83 7.61L30.83 7.61L30.83 7.61Q31.29 7.49 31.81 7.49L31.81 7.49L31.81 7.49Q32.34 7.49 32.82 7.67L32.82 7.67L32.82 7.67Q33.29 7.85 33.63 8.13L33.63 8.13L33.63 8.13Q33.96 8.42 34.20 8.78L34.20 8.78L34.20 8.78Q34.45 9.14 34.57 9.50L34.57 9.50L34.57 9.50Q34.69 9.86 34.69 10.19L34.69 10.19L34.69 10.19Q34.69 10.31 34.57 10.36L34.57 10.36L30.51 12.14L30.51 12.14Q30.78 12.79 31.31 13.22L31.31 13.22L31.31 13.22Q31.85 13.64 32.61 13.64L32.61 13.64L32.61 13.64Q33.08 13.64 33.56 13.38L33.56 13.38L33.56 13.38Q34.04 13.13 34.39 12.61L34.39 12.61L34.39 12.61Q34.43 12.55 34.51 12.55L34.51 12.55L34.51 12.55Q34.60 12.55 35.07 12.82L35.07 12.82L35.07 12.82Q35.12 12.86 35.12 12.93L35.12 12.93L35.12 12.93Q35.12 13.02 35.03 13.18L35.03 13.18L35.03 13.18Q34.15 14.81 32.23 14.81L32.23 14.81L32.23 14.81Q31.10 14.81 30.24 14.30L30.24 14.30L30.24 14.30Q29.37 13.79 28.92 12.94L28.92 12.94L28.92 12.94Q28.47 12.10 28.47 11.08ZM30.55 9.05L30.55 9.05L30.55 9.05Q30.21 9.50 30.21 10.20L30.21 10.20L30.21 10.20Q30.21 10.90 30.34 11.27L30.34 11.27L32.59 10.13L32.59 10.13Q32.59 9.47 32.27 9.03L32.27 9.03L32.27 9.03Q31.95 8.59 31.47 8.59L31.47 8.59L31.47 8.59Q30.90 8.59 30.55 9.05ZM36.21 7.13L35.88 3.94L35.88 3.91L35.88 3.91Q35.88 3.73 36.08 3.73L36.08 3.73L37.41 3.73L37.41 3.73Q37.63 3.73 37.60 3.94L37.60 3.94L37.28 7.13L37.28 7.13Q37.26 7.33 37.05 7.33L37.05 7.33L36.43 7.33L36.43 7.33Q36.23 7.33 36.21 7.13L36.21 7.13ZM38.62 12.33L38.62 12.33L38.62 12.33Q38.62 12.22 38.73 12.15L38.73 12.15L39.16 11.90L39.16 11.90Q39.21 11.87 39.29 11.87L39.29 11.87L39.29 11.87Q39.39 11.87 39.45 11.98L39.45 11.98L39.45 11.98Q40.69 13.87 42.62 13.87L42.62 13.87L42.62 13.87Q43.97 13.87 43.97 13.07L43.97 13.07L43.97 13.07Q43.97 12.95 43.93 12.85L43.93 12.85L43.93 12.85Q43.89 12.74 43.80 12.65L43.80 12.65L43.80 12.65Q43.72 12.56 43.63 12.49L43.63 12.49L43.63 12.49Q43.55 12.41 43.39 12.34L43.39 12.34L43.39 12.34Q43.23 12.26 43.12 12.22L43.12 12.22L43.12 12.22Q43.02 12.17 42.81 12.10L42.81 12.10L42.81 12.10Q42.60 12.04 42.50 12.00L42.50 12.00L42.50 12.00Q42.39 11.97 42.16 11.90L42.16 11.90L42.16 11.90Q41.93 11.84 41.84 11.81L41.84 11.81L41.84 11.81Q41.17 11.61 40.69 11.39L40.69 11.39L40.69 11.39Q40.20 11.16 39.92 10.93L39.92 10.93L39.92 10.93Q39.63 10.71 39.46 10.44L39.46 10.44L39.46 10.44Q39.29 10.17 39.23 9.93L39.23 9.93L39.23 9.93Q39.17 9.69 39.17 9.39L39.17 9.39L39.17 9.39Q39.17 8.54 39.83 8.00L39.83 8.00L39.83 8.00Q40.49 7.47 41.58 7.47L41.58 7.47L41.58 7.47Q42.15 7.47 42.66 7.62L42.66 7.62L42.66 7.62Q43.16 7.77 43.43 7.93L43.43 7.93L43.43 7.93Q43.47 7.95 43.49 7.95L43.49 7.95L43.49 7.95Q43.59 7.95 43.51 7.66L43.51 7.66L43.51 7.66Q43.50 7.59 43.50 7.56L43.50 7.56L43.50 7.56Q43.50 7.42 43.67 7.42L43.67 7.42L44.04 7.42L44.04 7.42Q44.21 7.42 44.28 7.58L44.28 7.58L44.98 9.36L44.98 9.36Q45.01 9.45 45.01 9.50L45.01 9.50L45.01 9.50Q45.01 9.59 44.91 9.65L44.91 9.65L44.56 9.83L44.56 9.83Q44.50 9.86 44.45 9.86L44.45 9.86L44.45 9.86Q44.37 9.86 44.28 9.75L44.28 9.75L44.28 9.75Q43.69 9.02 43.01 8.67L43.01 8.67L43.01 8.67Q42.33 8.32 41.77 8.32L41.77 8.32L41.77 8.32Q41.34 8.32 41.07 8.49L41.07 8.49L41.07 8.49Q40.79 8.66 40.79 9.03L40.79 9.03L40.79 9.03Q40.79 9.25 40.92 9.42L40.92 9.42L40.92 9.42Q41.04 9.60 41.29 9.72L41.29 9.72L41.29 9.72Q41.54 9.84 41.77 9.92L41.77 9.92L41.77 9.92Q42 10.00 42.35 10.09L42.35 10.09L42.35 10.09Q43.52 10.39 43.99 10.59L43.99 10.59L43.99 10.59Q45.36 11.16 45.50 12.26L45.50 12.26L45.50 12.26Q45.51 12.39 45.51 12.53L45.51 12.53L45.51 12.53Q45.51 13.53 44.71 14.17L44.71 14.17L44.71 14.17Q43.91 14.81 42.56 14.81L42.56 14.81L42.56 14.81Q41.68 14.81 40.94 14.44L40.94 14.44L40.94 14.44Q40.86 14.41 40.82 14.41L40.82 14.41L40.82 14.41Q40.69 14.41 40.75 14.62L40.75 14.62L40.75 14.62Q40.77 14.68 40.77 14.73L40.77 14.73L40.77 14.73Q40.77 14.85 40.61 14.84L40.61 14.84L40.11 14.84L40.11 14.84Q39.94 14.84 39.86 14.70L39.86 14.70L38.65 12.44L38.65 12.44Q38.62 12.37 38.62 12.33Z"></path></g><!----><!----></svg>